<svg width="1134" height="1134" fill="none" xmlns="http://www.w3.org/2000/svg"><circle cx="567" cy="567" r="567" fill="#1D1D1D"/><path d="M592.786 118h184.362v22.766H592.786V118z" fill="#3C3019"/><path fill-rule="evenodd" clip-rule="evenodd" d="M703.558 863.781a1163.296 1163.296 0 0 1-18.924 6.392 1140.52 1140.52 0 0 1-17.519-6.018V261.633c0-94.684-68.639-101.878-110.049-101.878v25.195c61.618 3.772 83.618 20.702 83.618 76.683v592.858c-49.864-18.883-98.265-40.881-134.325-61.253-24.375-13.752-46.445-30.61-64.697-51.911-18.226-21.293-31.377-46.518-41.941-72.333-20.021-48.929-32.705-99.582-29.591-152.752 3.624-61.986 27.972-121.306 61.9-172.707 8.69-13.181 18.12-26.308 28.394-38.696 3.713.176 7.169-.176 10.477-.995 4.495-1.152 8.488-3.264 12.306-5.842 1.882-1.32 3.668-2.816 5.383-4.417a63.72 63.72 0 0 0 5.014-5.085c3.14-3.661 6.184-7.479 8.876-11.535 5.4-7.972 10.019-16.207 13.37-22.428 1.671-3.115 3.026-5.701 3.932-7.523.327-.642.59-1.172.802-1.601l.245-.493c.193-.448.29-.686.29-.686h-.756c-.267.027-.597.067-.992.115-.385.047-.831.101-1.34.158-2.04.272-5.005.792-8.532 1.654-7.072 1.698-16.537 4.83-25.641 9.793-9.052 5.032-17.892 11.737-23.363 20.104-2.815 4.092-4.706 8.641-5.56 13.383-.747 3.933-.598 8.095.475 12.388-23.926 28.455-43.735 61.23-59.085 94.066-18.973 40.57-30.391 84.466-32.124 129.277-1.97 51.472 12.016 100.823 31.359 148.027 15.543 37.966 37.736 72.527 69.535 98.905 29.318 24.302 65.04 40.931 100.111 55.114 19.493 7.864 42.729 19.132 67.377 31.084l.008.004.01.005.002.001c2.678 1.299 5.373 2.606 8.081 3.917v21.351c-23.952 6.734-62.708 18.974-82.104 22.23-3.492.58 14.506 18.881 17.857 17.87 16.021-4.827 48.103-17.014 64.247-22.789v41.595h-83.618v27.331h256.529v-27.331h-83.609v-40.347c18.218 6.865 56.031 16.71 71.505 19.299 3.466.563 14.25-17.905 10.785-18.495-18.804-3.136-60.246-12.595-82.29-18.781v-19.18c42.578-18.877 83.233-39.266 119.236-58.854 47.069-25.639 82.369-62.021 105.6-110.413 21.498-44.785 36.681-94.329 38.915-144.076 3.088-68.928-20.038-136.537-55.9-194.616-10.512-17.017-22.264-33.971-35.283-49.712 1.126-4.399 1.276-8.64.528-12.652a34.924 34.924 0 0 0-5.55-13.383c-5.472-8.35-14.312-15.072-23.363-20.087-9.131-4.98-18.587-8.112-25.659-9.811-3.545-.879-6.483-1.355-8.515-1.662l-.237-.025-.304-.032-.335-.036-.003-.001a42.56 42.56 0 0 0-1.478-.144c-.484-.018-.766-.018-.766-.018s.115.22.308.704c.164.321.37.739.621 1.249l.417.845c.924 1.804 2.269 4.4 3.95 7.523 3.351 6.221 7.943 14.438 13.379 22.41 2.683 4.056 5.726 7.884 8.866 11.535 1.593 1.804 3.246 3.502 5.023 5.068a45.951 45.951 0 0 0 5.366 4.417c3.835 2.595 7.829 4.707 12.324 5.86a35.29 35.29 0 0 0 10.845.976c25.017 29.59 45.495 63.957 61.065 98.447 19.853 43.923 30.453 91.84 29.309 140.074-1.249 52.606-18.789 105.978-42.363 152.699-18.358 36.364-45.081 66.024-79.237 88.109-30.594 19.779-64.126 34.613-97.437 49.025-12.166 5.27-25.437 10.603-39.322 15.827V261.633c0-51.428 13.02-70.779 81.303-76.683v-25.195c-67.145 0-107.731 25.195-107.731 101.878v602.148zm0 78.705h-36.443v-51.415c6.3-2.426 12.588-4.907 18.856-7.436a949.281 949.281 0 0 0 17.587 7.789v51.062zm-36.443-66.726 1.105-.343-1.105-.521v.864z" fill="#3C3019"/><path d="M535.884 987.68h302.718V1015H535.884v-27.32zM561.256 830.848c4.768 1.699 9.21 4.312 14.092 7.972-3.132 10.752-12.552 17.562-23.627 20.694-11.154 3.203-23.935 2.956-35.651.898-11.779-2.042-22.589-5.825-30.4-9.177-7.812-3.335-12.667-6.151-12.667-6.151s4.961-1.979 12.561-4.504c7.653-2.614 17.856-5.825 28.614-8.473 10.758-2.596 21.974-4.541 32.256-4.057 5.173.203 10.072 1.118 14.822 2.798zM542.501 791.118c4.187 9.397 10.256 18.573 18.226 24.556 3.984 2.957 8.4 5.209 13.176 6.116 4.742.941 9.852.686 14.796-1.391.273-11.253-2.806-20.139-7.609-27.944-4.829-7.734-11.682-14.421-18.745-20.193-7.081-5.736-14.303-10.531-19.774-13.989-5.454-3.405-9.183-5.411-9.183-5.411s.052 1.205.237 3.334c.202 2.077.563 5.086 1.152 8.711 1.205 7.188 3.528 16.84 7.724 26.211zM492.155 802.562c-6.659 8.992-16.194 13.127-26.961 13.647-10.749.519-22.677-2.605-33.584-7.594-10.908-4.927-20.804-11.649-27.788-17.421-3.001-2.452-5.468-4.731-7.324-6.446l-.892-.821c-1.917-1.875-2.947-3.01-2.947-3.01s5.322-.096 13.802-.237c1.828-.012 3.788-.033 5.853-.055h.061c7.273-.077 15.838-.167 24.477.072 11.127.361 22.448 1.171 32.151 4.145 9.711 2.991 17.812 8.165 23.152 17.72zM485.672 773.738c6.096 7.734 14.646 12.837 25.237 12.3 4.31-10.347 3.571-20.21.668-29.281-2.929-9.037-8.101-17.342-13.335-24.575-5.243-7.215-10.6-13.374-14.523-17.799a128.278 128.278 0 0 0-4.732-5.209c-1.091-1.241-1.777-1.892-1.777-1.892s-.361 1.118-.888 3.097c-.537 2.006-1.126 4.866-1.689 8.368-1.153 7.065-1.654 16.699-.167 26.827 1.477 10.056 5.102 20.377 11.206 28.164zM341.375 692.739s4.926 1.416 12.57 3.818c7.565 2.42 17.531 5.93 27.242 10.506 2.419 1.152 4.812 2.34 7.196 3.66 2.568 1.443 5.058 2.886 7.45 4.399 2.437 1.443 4.829 2.886 7.055 4.417l.86.587c1.935 1.318 3.848 2.622 5.588 4.032 8.136 6.371 14.188 13.709 16.695 24.469-8.955 6.722-19.449 7.857-30.286 4.382-10.802-3.405-21.815-11.535-30.743-22.155a206.946 206.946 0 0 1-3.228-4.074l-1.575-2.059-1.231-1.68a165.525 165.525 0 0 1-4.469-6.494 204.585 204.585 0 0 1-7.16-11.842c-1.97-3.511-3.518-6.485-4.53-8.579-.968-2.112-1.434-3.387-1.434-3.387zM428.641 715.653c2.885 9.283 9.561 16.911 19.756 19.269 7.081-8.675 9.333-18.169 9.922-27.135.493-8.974-.659-17.474-1.636-24.609-.325-3.027-1.539-8.148-2.674-12.116a127.558 127.558 0 0 0-3.554-10.91c-.928-2.541-1.839-4.7-2.539-6.359l-.211-.5-.223-.532c-.65-1.786-1.073-2.78-1.073-2.78s-.721.994-1.891 2.798c-1.214 1.856-2.692 4.434-4.389 7.663-3.369 6.441-7.433 15.468-10.239 25.472a97.276 97.276 0 0 0-1.874 7.664 66.911 66.911 0 0 0-1.047 7.391c-.158 2.49-.044 4.962.185 7.478.246 2.464.809 4.848 1.487 7.206zM348.155 664.689c-2.085-1.768-4.161-3.678-5.911-5.842-3.625-4.215-6.941-8.957-9.905-13.761-6.184-9.538-9.887-19.999-12.552-27.804a177.7 177.7 0 0 1-2.938-9.485c-.572-2.322-.774-3.66-.774-3.66s4.512 2.411 11.681 6.238c7.011 3.907 16.185 9.248 24.894 15.503 8.981 6.168 17.865 13.111 23.618 21.117.285.415.573.829.861 1.242 1.118 1.605 2.238 3.212 3.168 4.891a34.127 34.127 0 0 1 2.876 6.528c1.407 4.558 1.812 9.459.906 14.817-10.731 3.141-20.584.73-29.477-4.971-2.216-1.408-4.371-3.044-6.447-4.813zM400.257 654.645c2.085 4.206 5.155 7.954 9.421 10.946 9.72-5.587 15.288-13.937 18.235-23.008.756-2.271 1.319-4.593 1.75-6.943.229-1.17.405-2.34.537-3.519.095-.614.186-1.232.277-1.851.085-.58.17-1.161.259-1.739.616-4.795.774-9.59.616-14.21-.598-9.176-1.17-17.834-2.34-24.108-.428-2.522-.89-4.674-1.252-6.357-.091-.425-.176-.82-.252-1.183-.299-1.786-.51-2.798-.51-2.798s-.898.827-2.393 2.341c-1.548 1.531-3.483 3.712-5.761 6.51-4.557 5.588-10.231 13.559-14.857 22.824-4.355 9.194-7.196 19.559-7.134 29.387-.036 2.472.378 4.83.95 7.118.598 2.296 1.398 4.496 2.454 6.59zM328.004 577.512c-1.645-2.199-3.07-4.593-4.424-7.083-2.754-4.971-5.067-10.329-7.046-15.749-1.047-2.701-1.725-5.464-2.375-8.183a209.765 209.765 0 0 1-1.716-7.989c-.941-5.191-1.794-10.048-2.085-14.227-.492-8.368-.334-13.92-.334-13.92s4.073 3.476 9.817 8.922c1.373 1.343 2.893 2.8 4.512 4.352 4.989 4.782 10.922 10.469 16.414 16.527a141.32 141.32 0 0 1 5.296 6.133c1.662 2.103 3.36 4.232 5.049 6.344 3.308 4.294 6.149 8.675 8.198 13.18 1.056 2.226 1.83 4.514 2.525 6.801a33.722 33.722 0 0 1 1.557 6.96c.528 4.707-.018 9.555-1.935 14.641-11.119 1.064-20.346-3.194-28.026-10.638a60.263 60.263 0 0 1-5.427-6.071zM387.977 588.252c10.617-3.661 17.698-10.708 22.36-18.785 1.17-2.042 2.164-4.127 3.061-6.274a67.736 67.736 0 0 0 2.718-6.563c1.557-4.417 2.657-8.922 3.413-13.304.164-.865.331-1.725.497-2.579.671-3.456 1.322-6.811 1.667-9.95.238-1.997.423-3.871.546-5.658.024-.373.046-.743.067-1.107.081-1.361.157-2.654.337-3.855.66-6.097.581-10.118.581-10.118s-4.117 2.27-9.993 6.493a178.85 178.85 0 0 0-4.688 3.537c-1.671 1.32-3.369 2.754-4.97 4.294a109.97 109.97 0 0 0-9.852 10.585 99.474 99.474 0 0 0-4.601 6.167 73.351 73.351 0 0 0-2.102 3.247 76.822 76.822 0 0 0-1.742 3.37c-2.208 4.522-3.905 9.282-4.829 14.06-.431 2.376-.765 4.76-.695 7.1a33.496 33.496 0 0 0 1.1 6.89c1.24 4.513 3.527 8.754 7.125 12.45zM341.639 440.246c2.595 4.311 5.287 8.984 7.768 13.761.466.941.94 1.889 1.417 2.842l.001.003.002.003c1.946 3.89 3.94 7.875 5.599 11.837a74.33 74.33 0 0 1 4.539 14.676c1.1 4.848 1.451 9.626.695 14.28-.326 2.296-1.082 4.602-1.865 6.889-.8 2.279-1.891 4.532-3.334 6.784-11.021-1.566-19.528-7.875-24.805-16.981-2.718-4.496-4.838-9.705-6.492-15.222-1.478-5.499-2.208-11.306-2.701-17.078-.246-2.886-.422-5.763-.439-8.578.079-2.807.228-5.517.439-8.165.37-5.28.959-10.154 1.584-14.316 1.662-8.191 3.237-13.47 3.237-13.47s3.035 4.364 7.222 11.086c2.032 3.335 4.442 7.285 7.133 11.649zM409.404 496.431c3.342-3.264 6.157-6.942 8.541-10.76 2.621-3.819 4.926-7.734 6.773-11.667.52-1.054.974-2.106 1.423-3.147.387-.896.771-1.785 1.19-2.66a99.543 99.543 0 0 0 2.472-5.552c1.152-2.752 2.043-5.374 2.846-7.736.239-.704.47-1.385.699-2.04 2.19-5.675 3.149-9.502 3.149-9.502s-4.557 1.1-11.312 3.643c-6.932 2.49-15.253 6.704-23.531 12.582l-.032.023c-2.013 1.471-4.147 3.03-5.967 4.737a73.564 73.564 0 0 0-5.251 5.358c-3.308 3.783-6.307 7.892-8.295 12.239-1.847 4.381-2.912 8.974-2.894 13.576.035 2.288.202 4.593.941 6.872.739 2.287 1.795 4.54 3.184 6.739 11.181-1.073 19.211-6.194 26.064-12.705zM380.45 418.539a29.081 29.081 0 0 1-3.598 6.115 29.801 29.801 0 0 1-4.961 5.649c-5.163-2.165-9.333-5.297-12.631-9.159-3.361-3.88-5.454-8.403-7.011-13.471-.757-2.525-1.32-5.165-1.724-7.901-.414-2.71-.713-5.57-.642-8.35.017-5.614.607-11.42 1.513-17.078 2.243-11.121 5.796-21.724 9.332-29.132a190.846 190.846 0 0 1 4.284-8.922c1.144-2.094 1.865-3.229 1.865-3.229s1.821 4.848 4.425 12.424c2.612 7.575 5.533 17.509 8.251 28.076 1.337 5.297 2.251 10.532 3.052 15.811.809 5.288 1.17 10.444.8 15.31l-.097 1.003-.001.009c-.198 2.073-.397 4.14-.79 6.123a32.924 32.924 0 0 1-2.067 6.722zM464.767 384.447a78.454 78.454 0 0 0 1.451-2.358s-1.196 0-3.299.088c-2.137.07-5.04.29-8.567.739-3.536.449-7.68 1.117-12.157 2.129-2.208.519-4.583 1.082-6.87 1.786-2.269.739-4.583 1.531-6.887 2.473-4.61 1.856-9.377 4.073-13.538 6.854-4.099 2.798-7.872 6.053-10.978 9.696-1.583 1.804-2.788 3.801-3.835 5.842a31.719 31.719 0 0 0-2.419 6.406 26.94 26.94 0 0 0-.862 6.836c.123 2.385.572 4.813 1.355 7.285 5.506.915 10.599.669 15.27-.378 4.627-1.047 9.166-2.781 13.16-5.103a48.363 48.363 0 0 0 5.735-3.801c.913-.65 1.782-1.388 2.651-2.125l.005-.005a99.138 99.138 0 0 0 2.665-2.182c3.493-3.009 6.589-6.29 9.351-9.625 2.964-3.264 5.621-6.564 7.846-9.732.456-.626.9-1.275 1.327-1.901l.002-.003.002-.002.297-.434c.229-.308.451-.611.671-.909.319-.435.633-.863.956-1.291 1.029-1.442 1.988-2.798 2.824-4.073 1.508-2.255 2.686-4.252 3.568-5.745l.276-.467zM418.114 347.072c-2.736 3.748-6.29 6.951-11.057 9.353-8.92-6.705-13.037-16.102-13.696-26.59-.255-5.191.317-10.637 1.469-16.136 1.196-5.446 3.14-10.787 5.269-15.996 2.19-5.156 4.89-9.951 7.441-14.368 2.411-4.15 5.013-7.735 7.272-10.846l.487-.671c2.366-3.282 4.53-5.807 6.069-7.558 1.549-1.742 2.437-2.754 2.437-2.754s.853 5.191 1.662 12.942c.449 3.933.933 8.518 1.302 13.454.185 2.454.335 4.979.431 7.575.15 2.613.273 5.306.335 7.989.105 10.673-.361 21.706-3.246 30.971-1.328 4.716-3.299 9.01-6.175 12.635zM484.94 350.802c3.571-2.613 6.993-5.261 9.922-7.883 2.982-2.614 5.726-5.033 7.908-7.198 1.166-1.195 2.248-2.259 3.193-3.189.808-.795 1.518-1.494 2.093-2.09a60.848 60.848 0 0 0 1.9-2.041s-4.635-1.03-11.866-1.751c-3.58-.343-7.75-.519-12.332-.502-4.583.018-9.544.326-14.435 1.118-9.975 1.46-19.994 4.848-27.647 10.532-3.712 2.921-6.852 6.361-9.043 10.347-2.058 4.056-3.105 8.711-2.858 13.796 10.318 4.505 20.029 4.109 28.913 1.531 4.522-1.276 8.788-3.123 12.764-5.358a88.72 88.72 0 0 0 11.488-7.312zM841.93 865.611c11.787-2.006 22.589-5.789 30.4-9.142 7.811-3.352 12.667-6.15 12.667-6.15s-4.97-1.979-12.588-4.522c-7.644-2.596-17.839-5.825-28.606-8.473-10.775-2.596-21.955-4.523-32.247-4.056-5.19.202-10.08 1.099-14.83 2.78-4.768 1.716-9.21 4.311-14.092 7.989 3.14 10.743 12.57 17.544 23.644 20.677 11.137 3.211 23.926 2.956 35.652.897zM797.27 820.926c-3.985 2.957-8.409 5.191-13.168 6.098-4.75.941-9.878.703-14.787-1.399-.299-11.245 2.771-20.123 7.574-27.927 4.847-7.734 11.699-14.438 18.771-20.193 7.073-5.736 14.303-10.549 19.757-13.989 5.445-3.414 9.183-5.411 9.183-5.411s-.044 1.223-.228 3.334c-.22 2.077-.563 5.086-1.153 8.693-1.222 7.197-3.527 16.858-7.732 26.238-4.169 9.379-10.256 18.538-18.217 24.556zM921.147 785.953c-11.136.36-22.465 1.153-32.141 4.127-9.72 3.009-17.83 8.182-23.161 17.702 6.659 9.001 16.194 13.163 26.961 13.664 10.758.519 22.659-2.613 33.566-7.558 10.917-4.953 20.813-11.667 27.788-17.456 3.322-2.665 6.006-5.18 7.917-6.971l.316-.297c1.909-1.874 2.956-2.991 2.956-2.991s-5.339-.106-13.828-.238c-1.593-.013-3.29-.033-5.07-.054h-.025c-7.43-.087-16.317-.191-25.279.072zM872.331 778.938c-6.087 7.76-14.646 12.863-25.228 12.3-4.319-10.321-3.563-20.184-.677-29.264 2.929-9.054 8.101-17.342 13.326-24.574 5.243-7.215 10.6-13.365 14.532-17.818a141.54 141.54 0 0 1 4.723-5.208c1.109-1.223 1.777-1.874 1.777-1.874s.352 1.099.88 3.097c.545 2.023 1.134 4.848 1.689 8.367 1.169 7.048 1.68 16.726.175 26.827-1.469 10.066-5.101 20.395-11.197 28.147zM993.003 736.088c1.1-1.337 2.191-2.718 3.246-4.073l1.557-2.077 1.232-1.663a172.9 172.9 0 0 0 4.472-6.493c2.78-4.241 5.19-8.315 7.17-11.825a185.35 185.35 0 0 0 4.5-8.579c.99-2.111 1.45-3.405 1.45-3.405s-4.93 1.443-12.57 3.819c-7.565 2.419-17.54 5.947-27.233 10.496-2.428 1.153-4.821 2.341-7.204 3.66a225.34 225.34 0 0 0-7.442 4.382l-1.121.683c-2.036 1.239-4.044 2.461-5.925 3.769l-.733.496c-1.988 1.342-3.96 2.674-5.714 4.124-8.163 6.361-14.207 13.681-16.714 24.451 8.964 6.722 19.467 7.874 30.277 4.381 10.829-3.396 21.842-11.526 30.752-22.146zM917.849 665.664c3.387 6.441 7.46 15.459 10.266 25.445a113.801 113.801 0 0 1 1.856 7.682 61.824 61.824 0 0 1 1.055 7.391c.15 2.516.036 4.988-.167 7.496-.237 2.472-.835 4.857-1.504 7.197-2.876 9.291-9.562 16.902-19.748 19.278-7.081-8.658-9.35-18.16-9.931-27.117-.483-8.828.631-17.175 1.57-24.212l.057-.433c.317-3.027 1.557-8.112 2.666-12.098a140.839 140.839 0 0 1 3.553-10.911c1.073-2.876 2.078-5.25 2.814-6.989l.177-.419c.66-1.777 1.064-2.771 1.064-2.771s.722 1.011 1.883 2.815c1.223 1.839 2.692 4.399 4.389 7.646zM1041.14 613.033c.57-2.323.79-3.678.79-3.678s-4.5 2.402-11.68 6.256c-7.01 3.871-16.19 9.247-24.89 15.485-8.986 6.15-17.862 13.11-23.623 21.117-.322.471-.65.942-.977 1.412-1.077 1.549-2.157 3.101-3.061 4.72-1.179 2.094-2.155 4.276-2.85 6.546-1.434 4.54-1.812 9.432-.906 14.817 10.714 3.097 20.592.704 29.477-4.98 2.22-1.408 4.36-3.044 6.45-4.795 2.06-1.786 4.16-3.695 5.91-5.842 3.62-4.224 6.94-8.957 9.9-13.779 6.18-9.555 9.9-19.999 12.56-27.786 1.29-3.933 2.28-7.197 2.9-9.493zM957.74 659.868c-2.085 4.205-5.164 7.971-9.43 10.963-9.72-5.605-15.27-13.955-18.243-23.052a52.756 52.756 0 0 1-1.751-6.943 57.66 57.66 0 0 1-.537-3.519l-.223-1.451-.005-.032c-.106-.694-.213-1.393-.326-2.107a88.07 88.07 0 0 1-.598-14.192c.59-9.195 1.161-17.817 2.322-24.126.483-2.797.994-5.138 1.373-6.878l.14-.644c.29-1.804.519-2.816.519-2.816s.88.827 2.393 2.34c1.548 1.531 3.466 3.731 5.744 6.529 4.548 5.569 10.248 13.541 14.875 22.806 4.354 9.194 7.186 19.542 7.133 29.387.018 2.481-.396 4.831-.967 7.136-.581 2.27-1.364 4.522-2.419 6.599zM1017.24 545.348a157.76 157.76 0 0 0-5.29 6.15l-1.26 1.578c-1.26 1.579-2.53 3.17-3.81 4.766-3.29 4.276-6.13 8.675-8.19 13.163-1.047 2.252-1.83 4.54-2.524 6.819a33.875 33.875 0 0 0-1.549 6.959c-.536 4.708.009 9.573 1.918 14.659 11.125 1.029 20.365-3.212 28.035-10.655 1.91-1.822 3.72-3.863 5.43-6.063 1.65-2.217 3.05-4.593 4.44-7.065 2.73-4.962 5.05-10.347 7.03-15.776 1.05-2.701 1.72-5.464 2.37-8.182.63-2.719 1.22-5.394 1.71-7.972.95-5.209 1.79-10.048 2.09-14.245.49-8.367.34-13.884.34-13.884s-4.09 3.423-9.85 8.904c-1.46 1.436-3.09 3-4.83 4.673-4.9 4.695-10.69 10.242-16.06 16.171zM978.284 574.169a32.333 32.333 0 0 1-1.117 6.871c-1.241 4.488-3.545 8.729-7.125 12.45-10.617-3.66-17.69-10.708-22.343-18.785-1.17-2.032-2.164-4.144-3.053-6.273a61.768 61.768 0 0 1-2.726-6.564c-1.566-4.434-2.674-8.921-3.422-13.303-.186-.997-.378-1.987-.567-2.968-.645-3.33-1.269-6.554-1.588-9.579a123.906 123.906 0 0 1-.554-5.622l-.038-.64c-.089-1.545-.173-2.994-.358-4.34-.66-6.115-.607-10.119-.607-10.119s4.134 2.271 10.001 6.494a158.994 158.994 0 0 1 4.706 3.554 63.295 63.295 0 0 1 4.962 4.276 114.45 114.45 0 0 1 9.869 10.568c1.574 1.997 3.131 4.038 4.592 6.203l.17.251c.665.981 1.333 1.966 1.941 2.995a87.51 87.51 0 0 1 1.733 3.353c2.208 4.54 3.905 9.264 4.82 14.024.44 2.411.765 4.796.704 7.154zM997.06 488.59c-1.134 4.848-1.469 9.591-.73 14.263.343 2.34 1.091 4.602 1.882 6.907a30.959 30.959 0 0 0 3.338 6.783c11.01-1.566 19.54-7.883 24.8-16.963 2.71-4.54 4.85-9.749 6.49-15.248 1.48-5.517 2.2-11.306 2.72-17.061.21-2.886.41-5.789.42-8.596-.08-2.78-.22-5.516-.42-8.147-.41-5.279-.97-10.171-1.6-14.333-1.67-8.2-3.23-13.488-3.23-13.488s-3.06 4.364-7.24 11.121c-2.04 3.317-4.46 7.25-7.14 11.614-2.59 4.347-5.28 9.001-7.75 13.796l-1.13 2.259c-2.05 4.052-4.16 8.239-5.9 12.382-2.082 4.971-3.56 9.863-4.51 14.711zM967.603 474.923c3.316 3.784 6.289 7.875 8.295 12.239 1.829 4.382 2.903 8.975 2.885 13.55-.026 2.323-.202 4.601-.932 6.907-.739 2.27-1.795 4.522-3.184 6.722-11.181-1.047-19.212-6.186-26.082-12.679-3.325-3.282-6.14-6.951-8.523-10.778-2.622-3.792-4.926-7.769-6.774-11.667-.561-1.114-1.043-2.23-1.519-3.334a74.493 74.493 0 0 0-1.102-2.473 96.527 96.527 0 0 1-2.454-5.535c-1.264-2.985-2.222-5.842-3.067-8.364l-.238-.708-.125-.373-.124-.365c-2.208-5.657-3.149-9.485-3.149-9.485s4.565 1.1 11.312 3.643c6.923 2.481 15.262 6.704 23.531 12.599l.002.002c2.031 1.478 4.159 3.026 5.979 4.723a72.408 72.408 0 0 1 5.269 5.376zM991.114 338.295s-1.83 4.848-4.433 12.424c-2.595 7.593-5.516 17.509-8.252 28.076-1.319 5.279-2.243 10.55-3.034 15.811-.827 5.297-1.188 10.453-.809 15.31l.115 1.191c.191 2.001.384 4.021.773 5.936.466 2.34 1.135 4.575 2.067 6.722a29.819 29.819 0 0 0 3.589 6.132 32.991 32.991 0 0 0 4.952 5.658c5.164-2.182 9.333-5.297 12.641-9.16 3.367-3.897 5.447-8.42 7.007-13.488.76-2.525 1.32-5.173 1.74-7.901.4-2.736.69-5.569.63-8.35-.02-5.622-.6-11.429-1.52-17.078-2.24-11.139-5.8-21.741-9.326-29.132a231.16 231.16 0 0 0-4.275-8.939c-1.144-2.059-1.865-3.212-1.865-3.212zM954.072 411.115c1.6 1.787 2.806 3.784 3.861 5.843a31.22 31.22 0 0 1 2.419 6.423c.572 2.199.862 4.496.862 6.819-.114 2.384-.58 4.83-1.355 7.267-5.506.95-10.599.669-15.261-.343-4.645-1.047-9.192-2.816-13.186-5.121a51.574 51.574 0 0 1-5.718-3.783 83.92 83.92 0 0 1-2.647-2.129c-.324-.27-.651-.534-.978-.799l-.003-.002c-.571-.462-1.144-.925-1.702-1.417-3.475-2.991-6.597-6.273-9.333-9.59a102.454 102.454 0 0 1-7.855-9.74c-.563-.809-1.1-1.584-1.619-2.341a56.682 56.682 0 0 1-.805-1.075l-.002-.002a42.89 42.89 0 0 0-.829-1.104 140.814 140.814 0 0 1-2.832-4.092c-1.328-1.986-2.385-3.76-3.22-5.163l-.208-.348-.425-.709c-.941-1.514-1.452-2.376-1.452-2.376s1.206-.018 3.317.088c2.137.07 5.031.29 8.567.739 3.528.449 7.653 1.1 12.148 2.129 2.208.502 4.583 1.065 6.861 1.804a95.847 95.847 0 0 1 6.906 2.455c4.6 1.856 9.368 4.073 13.519 6.854 4.1 2.824 7.864 6.053 10.97 9.713zM950.953 361.637c8.91-6.704 13.036-16.084 13.705-26.58.237-5.191-.326-10.655-1.461-16.137-1.214-5.446-3.14-10.778-5.286-15.996-2.182-5.173-4.891-9.933-7.451-14.385-2.336-4.034-4.876-7.529-7.097-10.585l-.379-.521-.273-.376c-2.358-3.3-4.53-5.825-6.079-7.594-1.548-1.733-2.419-2.719-2.419-2.719s-.87 5.174-1.68 12.926a291.824 291.824 0 0 0-1.284 13.453c-.193 2.437-.343 4.98-.457 7.575l-.018.344v.005c-.127 2.504-.257 5.084-.299 7.64-.106 10.673.361 21.706 3.228 30.971 1.328 4.708 3.316 8.975 6.193 12.635 2.718 3.766 6.28 6.925 11.057 9.344zM886.685 332.492c9.975 1.46 20.003 4.848 27.647 10.531 3.721 2.904 6.87 6.38 9.042 10.33 2.067 4.091 3.106 8.728 2.868 13.814-10.318 4.522-20.038 4.126-28.922 1.531-4.504-1.25-8.779-3.124-12.755-5.359a85.486 85.486 0 0 1-11.497-7.302c-3.589-2.596-7.002-5.262-9.931-7.893l-1.158-1.022c-2.518-2.221-4.856-4.283-6.75-6.193-1.019-1.036-1.974-1.974-2.828-2.814-.959-.942-1.789-1.758-2.441-2.447-1.258-1.302-1.909-2.059-1.909-2.059s4.645-.994 11.867-1.733c3.58-.326 7.731-.519 12.314-.502 4.601.035 9.553.308 14.453 1.118z" fill="#3C3019"/></svg>